HIERARCHY
ROOT Hips
{
	OFFSET 0.000000 0.000000 0.000000
	CHANNELS 6 Xposition Yposition Zposition Xrotation Yrotation Zrotation
	JOINT LeftUpLeg_virtual
	{
		OFFSET 0.000000 0.000000 0.000000
		CHANNELS 3 Xrotation Yrotation Zrotation
		JOINT LeftUpLeg
		{
			OFFSET 15.427100 -6.655098 0.678600
			CHANNELS 3 Xrotation Yrotation Zrotation
			JOINT LeftLeg
			{
				OFFSET 4.081073 -39.591068 13.024000
				CHANNELS 3 Xrotation Yrotation Zrotation
				JOINT LeftFoot
				{
					OFFSET -4.081074 -37.707932 -15.979700
					CHANNELS 3 Xrotation Yrotation Zrotation
					JOINT LeftToeBase
					{
						OFFSET 5.346399 -15.068900 20.645000
						CHANNELS 3 Xrotation Yrotation Zrotation
						JOINT LeftToe_End
						{
							OFFSET 2.754700 0.931300 11.300900
							CHANNELS 3 Xrotation Yrotation Zrotation
							End Site
							{
								OFFSET 0 0 0
							}
						}
					}
				}
			}
		}
	}
	JOINT RightUpLeg_virtual
	{
		OFFSET 0.000000 0.000000 0.000000
		CHANNELS 3 Xrotation Yrotation Zrotation
		JOINT RightUpLeg
		{
			OFFSET -15.569500 -6.655098 0.678600
			CHANNELS 3 Xrotation Yrotation Zrotation
			JOINT RightLeg
			{
				OFFSET -4.081825 -39.591045 13.023800
				CHANNELS 3 Xrotation Yrotation Zrotation
				JOINT RightFoot
				{
					OFFSET 4.081824 -37.707954 -15.979600
					CHANNELS 3 Xrotation Yrotation Zrotation
					JOINT RightToeBase
					{
						OFFSET -5.346400 -15.068900 20.645000
						CHANNELS 3 Xrotation Yrotation Zrotation
						JOINT RightToe_End
						{
							OFFSET -2.754700 0.931300 11.300900
							CHANNELS 3 Xrotation Yrotation Zrotation
							End Site
							{
								OFFSET 0 0 0
							}
						}
					}
				}
			}
		}
	}
	JOINT Spine_virtual
	{
		OFFSET 0.000000 0.000000 0.000000
		CHANNELS 3 Xrotation Yrotation Zrotation
		JOINT Spine
		{
			OFFSET -0.279200 12.230698 -2.892100
			CHANNELS 3 Xrotation Yrotation Zrotation
			JOINT Spine1
			{
				OFFSET -0.232667 10.192268 -1.242267
				CHANNELS 3 Xrotation Yrotation Zrotation
				JOINT Spine1_split
				{
					OFFSET -0.232667 10.192268 -1.242267
					CHANNELS 3 Xrotation Yrotation Zrotation
					JOINT Spine2
					{
						OFFSET -0.232667 10.192268 -1.242267
						CHANNELS 3 Xrotation Yrotation Zrotation
						JOINT Neck_virtual
						{
							OFFSET 0.000000 0.000000 0.000000
							CHANNELS 3 Xrotation Yrotation Zrotation
							JOINT Neck
							{
								OFFSET -0.418800 17.814194 8.416900
								CHANNELS 3 Xrotation Yrotation Zrotation
								JOINT Head
								{
									OFFSET 0.000000 7.031097 3.806800
									CHANNELS 3 Xrotation Yrotation Zrotation
									JOINT HeadTop_End
									{
										OFFSET 0.000000 24.646606 12.978600
										CHANNELS 3 Xrotation Yrotation Zrotation
										End Site
										{
											OFFSET 0 0 0
										}
									}
								}
							}
						}
						JOINT LeftShoulder_virtual
						{
							OFFSET 0.000000 0.000000 0.000000
							CHANNELS 3 Xrotation Yrotation Zrotation
							JOINT LeftShoulder
							{
								OFFSET 8.476499 7.247704 -3.868750
								CHANNELS 3 Xrotation Yrotation Zrotation
								JOINT LeftShoulder_split
								{
									OFFSET 8.476499 7.247704 -3.868750
									CHANNELS 3 Xrotation Yrotation Zrotation
									JOINT LeftArm
									{
										OFFSET 9.308998 -2.777710 0.208600
										CHANNELS 3 Xrotation Yrotation Zrotation
										JOINT LeftForeArm
										{
											OFFSET 29.972298 0.000000 0.000000
											CHANNELS 3 Xrotation Yrotation Zrotation
											JOINT LeftHand
											{
												OFFSET 26.026505 0.000000 0.000000
												CHANNELS 3 Xrotation Yrotation Zrotation
												End Site
												{
													OFFSET 0 0 0
												}
											}
										}
									}
								}
							}
						}
						JOINT RightShoulder_virtual
						{
							OFFSET 0.000000 0.000000 0.000000
							CHANNELS 3 Xrotation Yrotation Zrotation
							JOINT RightShoulder
							{
								OFFSET -7.570500 7.247704 -3.868750
								CHANNELS 3 Xrotation Yrotation Zrotation
								JOINT RightShoulder_split
								{
									OFFSET -7.570500 7.247704 -3.868750
									CHANNELS 3 Xrotation Yrotation Zrotation
									JOINT RightArm
									{
										OFFSET -9.308998 -2.777710 0.208500
										CHANNELS 3 Xrotation Yrotation Zrotation
										JOINT RightForeArm
										{
											OFFSET -29.972300 0.000000 0.000000
											CHANNELS 3 Xrotation Yrotation Zrotation
											JOINT RightHand
											{
												OFFSET -26.026505 0.000000 0.000000
												CHANNELS 3 Xrotation Yrotation Zrotation
												End Site
												{
													OFFSET 0 0 0
												}
											}
										}
									}
								}
							}
						}
					}
				}
			}
		}
	}
}
MOTION
Frames: 6
Frame Time: 0.03333333
2.832942 82.468506 0.250919 0.000000 0.000000 0.000000 5.156496 -3.709492 -1.216832 -36.387980 6.954864 19.714185 58.688967 8.060159 -0.788879 -0.870920 7.234625 -11.906342 -18.810935 0.236083 -4.997912 0.000000 0.000000 0.000000 4.334272 -3.977767 -1.070232 -27.326648 -9.050725 2.849733 35.940551 -5.004400 -0.534941 -19.782352 -4.707726 -2.070124 7.351806 -0.073094 0.000715 0.000000 0.000000 0.000000 5.447548 -5.362500 -0.812671 9.294007 3.502372 6.836987 6.576682 1.263568 0.906781 1.090455 -0.496119 0.152900 0.000000 0.000000 0.000000 7.180119 1.184736 0.864457 1.751674 -1.162966 -1.051937 -1.687193 -3.517308 -0.949750 0.000000 0.000000 0.000000 7.279870 1.206712 0.798613 2.397670 -8.193530 -12.926107 -1.016898 -1.990642 -1.223155 -23.745706 0.495033 -67.704086 -1.118450 -30.809160 -1.151947 0.000000 0.000000 0.000000 7.290783 1.107766 0.834413 3.795855 17.585442 6.549997 0.874645 3.226518 -2.174347 -12.037804 2.964227 67.303851 -0.299619 21.962641 0.231353 0.000000 0.000000 0.000000 
2.492100 82.686050 0.793171 0.000000 0.000000 0.000000 5.123008 -4.013617 -1.125836 -37.583908 7.333086 19.259884 57.030717 7.538667 -0.147822 0.747833 5.875766 -13.156564 -18.884346 0.226179 -4.369673 0.000000 0.000000 0.000000 4.668964 -4.244512 -0.908325 -26.849957 -8.427121 3.051114 37.112229 -4.907169 -0.538352 -20.201983 -4.588392 -1.712127 7.210488 -0.074162 -0.132417 0.000000 0.000000 0.000000 5.728279 -5.027024 -0.591335 9.119725 3.559087 6.966595 6.517635 1.301595 0.913167 0.851810 -0.376447 0.234709 0.000000 0.000000 0.000000 7.166429 1.209765 0.861645 1.951242 -1.228290 -1.178605 -1.642888 -3.792089 -0.869016 0.000000 0.000000 0.000000 7.247305 1.240897 0.786811 2.420954 -8.234646 -13.187110 -0.869656 -1.778818 -1.184582 -23.934537 0.494737 -68.123392 -0.994181 -31.299755 -1.082329 0.000000 0.000000 0.000000 7.276574 1.145941 0.837340 3.728078 17.745970 6.843856 0.654341 3.129906 -2.213149 -11.732741 2.440148 66.940615 -0.255709 21.479731 0.294882 0.000000 0.000000 0.000000 
2.035839 83.210258 1.552830 0.000000 0.000000 0.000000 5.034141 -4.170969 -0.484447 -38.008975 8.435268 17.251880 52.958090 7.179592 0.410031 0.928217 4.202479 -12.871725 -19.353143 -0.101228 -2.568091 0.000000 0.000000 0.000000 4.877066 -4.429554 -0.261576 -26.040446 -7.115566 2.935843 38.220000 -4.977120 -0.667347 -20.624079 -4.236000 -1.382165 6.769508 -0.066588 -0.276949 0.000000 0.000000 0.000000 5.910046 -4.582965 0.081888 9.022650 3.652067 6.923271 6.378028 1.437820 0.868894 0.634138 -0.165968 0.265079 0.000000 0.000000 0.000000 7.046650 1.325179 0.823516 2.175264 -1.257221 -1.595729 -1.541769 -4.156469 -1.013715 0.000000 0.000000 0.000000 7.073141 1.353759 0.761701 2.402251 -8.170055 -13.470398 -0.791729 -1.313590 -1.138885 -23.614747 0.366714 -68.585980 -0.723076 -31.934707 -0.915605 0.000000 0.000000 0.000000 7.138739 1.257797 0.803120 3.644720 17.671820 7.163805 0.543788 3.076169 -2.342262 -11.182953 1.077497 66.348943 -0.186055 21.365397 0.393506 0.000000 0.000000 0.000000 
1.555661 83.879913 2.602535 0.000000 0.000000 0.000000 5.025965 -4.137917 0.624075 -38.195179 9.793611 14.401660 47.793948 7.150156 0.703719 0.537571 2.738365 -11.506500 -16.095406 -0.245976 -1.770004 0.000000 0.000000 0.000000 5.063408 -4.608053 0.793034 -25.060447 -5.421023 2.366751 38.670868 -5.140764 -0.921010 -21.043447 -3.658053 -1.078790 6.353627 -0.020927 -0.364066 0.000000 0.000000 0.000000 5.962012 -4.114866 1.077369 9.045530 3.733155 6.669012 6.181306 1.618344 0.809813 0.449407 -0.088512 0.231726 0.000000 0.000000 0.000000 6.844771 1.489735 0.780442 2.365874 -1.219772 -2.158661 -1.359671 -4.522919 -1.374951 0.000000 0.000000 0.000000 6.804539 1.497846 0.744185 2.355373 -7.981265 -13.721023 -0.776464 -0.630693 -1.054096 -22.772221 -0.004610 -68.985628 -0.416181 -32.423786 -0.740356 0.000000 0.000000 0.000000 6.889900 1.399280 0.761204 3.575788 17.319481 7.475334 0.449147 3.006895 -2.340932 -10.468149 -0.798068 65.708947 -0.070961 21.629536 0.483921 0.000000 0.000000 0.000000 
1.115763 84.609474 3.866848 0.000000 0.000000 0.000000 5.094513 -3.890052 1.987813 -39.253527 10.866571 11.667560 42.645615 7.184667 0.629887 1.647485 1.447381 -10.345980 -9.037981 -0.081674 -2.465756 0.000000 0.000000 0.000000 5.346447 -4.765815 2.066881 -23.822479 -3.666398 1.442539 38.252932 -5.377688 -1.271840 -21.329733 -2.914563 -0.808592 6.308884 0.061846 -0.309372 0.000000 0.000000 0.000000 6.005596 -3.701501 2.179487 9.143900 3.778146 6.202074 5.979796 1.798255 0.764105 0.446512 -0.177729 0.138654 0.000000 0.000000 0.000000 6.589799 1.663708 0.755738 2.454478 -1.156454 -2.695355 -1.070821 -4.808912 -1.870574 0.000000 0.000000 0.000000 6.504514 1.636491 0.744691 2.296319 -7.672461 -13.885649 -0.933328 0.017188 -0.960876 -21.524668 -0.616968 -69.169141 -0.225549 -32.769503 -0.635348 0.000000 0.000000 0.000000 6.570934 1.556832 0.745790 3.536067 16.758754 7.811226 0.396034 3.015965 -2.277469 -9.759475 -2.957382 65.189675 0.093680 22.132123 0.532945 0.000000 0.000000 0.000000 
0.654814 85.281738 5.347244 0.000000 0.000000 0.000000 5.270901 -3.673302 3.386483 -40.322234 11.276168 9.236443 37.208996 7.155152 0.475754 4.318563 0.409505 -9.236642 -3.175723 -0.042097 -2.827359 0.000000 0.000000 0.000000 5.640480 -4.749074 3.379696 -22.397546 -2.225795 0.275626 37.077269 -5.667858 -1.613198 -21.292099 -2.182913 -0.419317 6.482317 0.162917 -0.111551 0.000000 0.000000 0.000000 6.007775 -3.311795 3.200709 9.275051 3.786481 5.524631 5.796843 1.938944 0.727104 0.572927 -0.426368 0.018189 0.000000 0.000000 0.000000 6.323714 1.822948 0.734212 2.398961 -1.095001 -3.041983 -0.638463 -4.990835 -2.389013 0.000000 0.000000 0.000000 6.235884 1.754501 0.747393 2.239594 -7.299045 -13.942375 -1.022603 0.561936 -0.839979 -20.123346 -1.414954 -68.995204 -0.191778 -33.044015 -0.629216 0.000000 0.000000 0.000000 6.219705 1.719483 0.764763 3.514108 16.073179 8.200729 0.442970 3.124428 -2.248925 -9.130741 -5.075149 64.920463 0.303487 22.664096 0.516137 0.000000 0.000000 0.000000 
